<?xml version="1.0" standalone="no"?>
<!DOCTYPE svg PUBLIC "-//W3C//DTD SVG 20010904//EN"
 "http://www.w3.org/TR/2001/REC-SVG-20010904/DTD/svg10.dtd">
<svg version="1.0" xmlns="http://www.w3.org/2000/svg"
 width="16.000000pt" height="16.000000pt" viewBox="0 0 16.000000 16.000000"
 preserveAspectRatio="xMidYMid meet">

<g transform="translate(0.000000,16.000000) scale(0.100000,-0.100000)"
fill="#000000" stroke="none">
<path d="M2 155 c11 -11 128 -16 128 -6 0 7 -27 11 -67 11 -36 0 -64 -2 -61
-5z"/>
<path d="M120 65 c-7 -8 -18 -15 -24 -14 -6 1 -30 1 -53 0 -39 -1 -43 -3 -43
-26 0 -25 1 -25 80 -25 78 0 80 1 80 24 0 51 -17 69 -40 41z"/>
</g>
</svg>
